# xmcd
#
# Track frame offsets:
#	150
#	13497
#	29767
#	35835
#	50945
#	60935
#	64345
#	81620
#	97560
#	106795
#	120302
#	132390
#	136987
#	146137
#	158767
#	173820
#	187159
#	190159
#	199705
#	207085
#	225330
#	232577
#	243250
#	254607
#	262007
#	279477
#
# Disc length: 3783 seconds
# Revision: 2
# Processed by: cddbd v1.5.2PL0 Copyright (c) Steve Scherf et al.
# Submitted via: dBpowerAMP V12.0
#
DISCID=7b0ec51a
DTITLE=Carter Family - On Border Radio, Vol. 2 (Radio Station XET, Monterrey N.L. Mexico, 1939) [Arhoolie CD 412]
DYEAR=1997
DGENRE=Country
TTITLE0=Theme - Why There Is A Tear In My Eyes
TTITLE1=Sleep Baby Sleep - Just Another Broken Heart
TTITLE2=Corina
TTITLE3=I Can Not Be Your Sweetheart - Red Wing
TTITLE4=A Broken Down Saint
TTITLE5=Weeping Willow
TTITLE6=You Are My Flower - Gathering Flowers From The Hillside
TTITLE7=The Last Letter - I Wouldn't Mind Diving
TTITLE8=Who's That Knocking At My Window?
TTITLE9=Diamonds In The Rough - the Fatal Wedding
TTITLE10=It's Hard To Please Your Mind - Death Is Only Your Dream
TTITLE11=Theme - XET Station Break
TTITLE12=Theme - The Church In The Wildewood
TTITLE13=Are You Tired of Me, Darling? - Sourwood Mountain
TTITLE14=Bury Me Not On The Lone Prairie - My Bonnie Blue Eyes
TTITLE15=Yankee Doodle - Storms On The Ocean
TTITLE16=Suger Hill
TTITLE17=Hello Stranger
TTITLE18=Cowboy Jack
TTITLE19=Nobody's Darling - Funny When You Feel That Way
TTITLE20=Dixie Darling
TTITLE21=Shortning Bread - Soldier And His Sweetheart
TTITLE22=Polly Wolly Doodle All Day - My Gold Watch and Chain
TTITLE23=River Of Jordan
TTITLE24=I Will Never Marry - God Gave Noah The Rainbow Sign
TTITLE25=Theme Out and XET Station Break
EXTD=
EXTT0=
EXTT1=
EXTT2=
EXTT3=
EXTT4=
EXTT5=
EXTT6=
EXTT7=
EXTT8=
EXTT9=
EXTT10=
EXTT11=
EXTT12=
EXTT13=
EXTT14=
EXTT15=
EXTT16=
EXTT17=
EXTT18=
EXTT19=
EXTT20=
EXTT21=
EXTT22=
EXTT23=
EXTT24=
EXTT25=
PLAYORDER=
